# xmcd
#
# Track frame offsets:
#	150
#	9827
#	20157
#	32377
#	42655
#	53742
#	65512
#	76950
#	87125
#	100287
#	112910
#	125670
#	137797
#	149017
#	160175
#	172370
#	184092
#	197012
#	206580
#	217515
#
# Disc length: 3036 seconds
# Revision: 0
# Processed by: cddbd v1.5.2PL0 Copyright (c) Steve Scherf et al.
# Submitted via: dBpowerAMP V12.0
#
DISCID=180bda14
DTITLE=George Jones - The Golden Era of Capital/Ua Country
DYEAR=1990
DGENRE=Country
TTITLE0=The Race Is on
TTITLE1=Your Heart Turned Left
TTITLE2=You Comb Her Hair
TTITLE3=Love's Gonna Live Here
TTITLE4=Don't Let the Stars Get in Your Eyes
TTITLE5=She Thinks I Still Care
TTITLE6=They'll Never Take Her Love from Me
TTITLE7=I Heard You Crying in Your Sleep
TTITLE8=Time Changes Everything
TTITLE9=San Antonio Rose
TTITLE10=Just When I Needed You
TTITLE11=We Must Have Been Out of Our Mind
TTITLE12=We Could
TTITLE13=When Your House Is Not a Home
TTITLE14=Girl I Used to Know
TTITLE15=Take Me as I Am
TTITLE16=Seasons of My Heart
TTITLE17=You Done Me Wrong
TTITLE18=Mansion on the Hill
TTITLE19=Ragged But Right
EXTD=
EXTT0=
EXTT1=
EXTT2=
EXTT3=
EXTT4=
EXTT5=
EXTT6=
EXTT7=
EXTT8=
EXTT9=
EXTT10=
EXTT11=
EXTT12=
EXTT13=
EXTT14=
EXTT15=
EXTT16=
EXTT17=
EXTT18=
EXTT19=
PLAYORDER=
